<?xml version="1.0" encoding="utf-8"?>
<!-- Generator: Adobe Illustrator 21.0.0, SVG Export Plug-In . SVG Version: 6.00 Build 0)  -->
<svg version="1.1" id="Vrstva_1" xmlns="http://www.w3.org/2000/svg" xmlns:xlink="http://www.w3.org/1999/xlink" x="0px" y="0px"
	 viewBox="0 0 799.5 799.5" style="enable-background:new 0 0 799.5 799.5;" xml:space="preserve">
<style type="text/css">
	.st0{enable-background:new    ;}
	.st1{fill:#8CBF59;}
	.st2{font-family:'Montserrat-Regular';}
	.st3{font-size:14px;}
	.st4{letter-spacing:32;}
	.st5{fill:none;stroke:#D1D1D1;stroke-miterlimit:10;enable-background:new    ;}
	.st6{fill:none;stroke:#8CBF59;stroke-miterlimit:10;enable-background:new    ;}
	.st7{fill:#1BBC9B;enable-background:new    ;}
	.st8{fill:#E74D43;enable-background:new    ;}
</style>
<g>
	<text transform="matrix(1 0 0 1 24.3322 98.7043)" class="st0"><tspan x="0" y="0" class="st1 st2 st3"> 13 - Využití polních robotů v zelinářství a ovocnářství</tspan><tspan x="0" y="69" class="st1 st2 st3">15 - Tvorba map fyzikálních a chemických vlastností...</tspan><tspan x="0" y="138" class="st1 st2 st3">12 - Monitoring zvěře na zemědělských a lesních po...</tspan><tspan x="0" y="207" class="st1 st2 st3">17 - Automatická regulace přesného setí  podle  ma...</tspan><tspan x="0" y="276" class="st1 st2 st3">8  - Automatická regulace řádkového setí podle ma...</tspan><tspan x="0" y="345" class="st1 st2 st3">18 - Variabilní aplikace prostředků pro ochranu rostl... </tspan><tspan x="0" y="414" class="st1 st2 st3 st4">				</tspan><tspan x="144" y="414" class="st1 st2 st3">   14 - Variabilní zpracování půdy </tspan><tspan x="0" y="483" class="st1 st2 st3 st4">		</tspan><tspan x="72" y="483" class="st1 st2 st3"> 20 - Mapování výnosů při sklizni okopanin</tspan><tspan x="0" y="552" class="st1 st2 st3">9  - Využití dronů při aplikaci prostředků ochrany ro...</tspan><tspan x="0" y="621" class="st1 st2 st3">6  - Automatická regulace dávky hnojiva podle map...</tspan></text>
	<line class="st5" x1="532.9" y1="60" x2="532.9" y2="739.5"/>
	<line class="st5" x1="672.4" y1="60" x2="672.4" y2="739.5"/>
	<line class="st6" x1="392.7" y1="60" x2="392.7" y2="739.5"/>
	<rect x="392.7" y="700.5" class="st7" width="171.8" height="36.3"/>
	<rect x="392.7" y="631.2" class="st7" width="194" height="36.3"/>
	<rect x="392.7" y="353.8" class="st7" width="238.8" height="36.3"/>
	<rect x="392.7" y="284.5" class="st7" width="253.2" height="36.3"/>
	<rect x="392.7" y="215.2" class="st7" width="254.8" height="36.3"/>
	<rect x="392.7" y="561.8" class="st8" width="206.8" height="36.3"/>
	<rect x="392.7" y="492.5" class="st8" width="206.8" height="36.3"/>
	<rect x="392.7" y="423.2" class="st8" width="206.8" height="36.3"/>
	<rect x="393.2" y="145.8" class="st8" width="337.5" height="36.3"/>
	<rect x="392.7" y="76.5" class="st8" width="382.5" height="36.3"/>
</g>
</svg>
