<?xml version="1.0" encoding="utf-8"?>
<!-- Generator: Adobe Illustrator 21.0.0, SVG Export Plug-In . SVG Version: 6.00 Build 0)  -->
<svg version="1.1" id="Vrstva_1" xmlns="http://www.w3.org/2000/svg" xmlns:xlink="http://www.w3.org/1999/xlink" x="0px" y="0px"
	 viewBox="0 0 799.5 799.5" style="enable-background:new 0 0 799.5 799.5;" xml:space="preserve">
<style type="text/css">
	.st0{fill:#FBF200;enable-background:new    ;}
	.st1{fill:#EFEFEF;enable-background:new    ;}
	.st2{fill:#74C10A;enable-background:new    ;}
	.st3{fill:#86C72B;enable-background:new    ;}
	.st4{fill:#8ECD00;enable-background:new    ;}
	.st5{fill:#DBEF00;enable-background:new    ;}
	.st6{fill:#B5DE00;enable-background:new    ;}
	.st7{fill:#FBCF00;enable-background:new    ;}
	.st8{fill:#A1D500;enable-background:new    ;}
	.st9{fill:#FF0000;enable-background:new    ;}
	.st10{font-family:'Montserrat-Regular';}
	.st11{font-size:18px;}
</style>
<g>
	<rect x="647.4" y="7.8" class="st0" width="147.8" height="147.8"/>
	<rect x="27.9" y="7.8" class="st1" width="147.8" height="147.8"/>
	<rect x="492.5" y="7.8" class="st2" width="147.8" height="147.8"/>
	<rect x="182.7" y="7.8" class="st3" width="147.8" height="147.8"/>
	<rect x="337.6" y="7.8" class="st3" width="147.8" height="147.8"/>
	<rect x="647.4" y="159" class="st4" width="147.8" height="147.8"/>
	<rect x="27.9" y="159" class="st1" width="147.8" height="147.8"/>
	<rect x="492.5" y="159" class="st5" width="147.8" height="147.8"/>
	<rect x="182.7" y="159" class="st3" width="147.8" height="147.8"/>
	<rect x="337.6" y="159" class="st4" width="147.8" height="147.8"/>
	<rect x="647.4" y="310.3" class="st6" width="147.8" height="147.8"/>
	<rect x="27.9" y="310.3" class="st1" width="147.8" height="147.8"/>
	<rect x="492.5" y="310.3" class="st7" width="147.8" height="147.8"/>
	<rect x="182.7" y="310.3" class="st8" width="147.8" height="147.8"/>
	<rect x="337.6" y="310.3" class="st9" width="147.8" height="147.8"/>
	<rect x="647.4" y="461.5" class="st4" width="147.8" height="147.8"/>
	<rect x="27.9" y="461.5" class="st3" width="147.8" height="147.8"/>
	<rect x="492.5" y="461.5" class="st8" width="147.8" height="147.8"/>
	<rect x="182.7" y="461.5" class="st8" width="147.8" height="147.8"/>
	<rect x="337.6" y="461.5" class="st3" width="147.8" height="147.8"/>
	<rect x="647.4" y="612.8" class="st1" width="147.8" height="147.8"/>
	<rect x="27.9" y="612.8" class="st3" width="147.8" height="147.8"/>
	<rect x="492.5" y="612.8" class="st1" width="147.8" height="147.8"/>
	<rect x="182.7" y="612.8" class="st1" width="147.8" height="147.8"/>
	<rect x="337.6" y="612.8" class="st1" width="147.8" height="147.8"/>
	<text transform="matrix(1 0 0 1 98.5174 787.0248)" class="st3 st10 st11">1</text>
	<text transform="matrix(1 0 0 1 251.5296 787.0244)" class="st3 st10 st11">2</text>
	<text transform="matrix(1 0 0 1 406.4408 787.0248)" class="st3 st10 st11">3</text>
	<text transform="matrix(1 0 0 1 560.4434 787.0246)" class="st3 st10 st11">4</text>
	<text transform="matrix(1 0 0 1 716.173 787.0248)" class="st3 st10 st11">5</text>
	<text transform="matrix(1 0 0 1 65.5174 573.0247)" class="st3 st10 st11">1</text>
	<text transform="matrix(1 0 0 1 7.0159 691.9679)" class="st3 st10 st11">1</text>
	<text transform="matrix(1 0 0 1 5.1527 540.7181)" class="st3 st10 st11">2</text>
	<text transform="matrix(1 0 0 1 5.189 389.4679)" class="st3 st10 st11">3</text>
	<text transform="matrix(1 0 0 1 4.316 238.218)" class="st3 st10 st11">4</text>
	<text transform="matrix(1 0 0 1 5.1711 86.9681)" class="st3 st10 st11">5</text>
</g>
</svg>
