<?xml version="1.0" encoding="utf-8"?>
<!-- Generator: Adobe Illustrator 21.0.0, SVG Export Plug-In . SVG Version: 6.00 Build 0)  -->
<svg version="1.1"
	 id="svg2" inkscape:version="0.91 r13725" sodipodi:docname="2-off.svg" xmlns:cc="http://creativecommons.org/ns#" xmlns:dc="http://purl.org/dc/elements/1.1/" xmlns:inkscape="http://www.inkscape.org/namespaces/inkscape" xmlns:rdf="http://www.w3.org/1999/02/22-rdf-syntax-ns#" xmlns:sodipodi="http://sodipodi.sourceforge.net/DTD/sodipodi-0.dtd" xmlns:svg="http://www.w3.org/2000/svg"
	 xmlns="http://www.w3.org/2000/svg" xmlns:xlink="http://www.w3.org/1999/xlink" x="0px" y="0px" viewBox="0 0 113.4 113.4"
	 style="enable-background:new 0 0 113.4 113.4;" xml:space="preserve">
<style type="text/css">
	.st0{fill:none;stroke:#555555;stroke-width:9;}
	.st1{enable-background:new    ;}
	.st2{fill:#6EBF50;}
	.st3{fill:#555555;stroke:#555555;stroke-width:3;}
</style>
<sodipodi:namedview  bordercolor="#666666" borderopacity="1.0" id="base" inkscape:current-layer="layer1" inkscape:cx="73.0646" inkscape:cy="75.757396" inkscape:document-units="px" inkscape:pageopacity="0.0" inkscape:pageshadow="2" inkscape:window-height="822" inkscape:window-maximized="0" inkscape:window-width="822" inkscape:window-x="0" inkscape:window-y="0" inkscape:zoom="1.979899" pagecolor="#ffffff" showgrid="false" units="cm" width="40mm">
	</sodipodi:namedview>
<g>
	
		<circle id="path4136-6" inkscape:export-filename="C:\Users\Lucka\Desktop\KIT\HodnocenĂ­ koleÄŤka\2.png" inkscape:export-xdpi="90" inkscape:export-ydpi="90" class="st0" cx="56.7" cy="56.7" r="45.1">
	</circle>
	<g class="st1">
		<path class="st2" d="M69.1,71.1v3.2H44.6v-2.5l14.5-14.3c1.8-1.8,3.1-3.4,3.7-4.7c0.6-1.3,1-2.6,1-4c0-2.1-0.7-3.7-2.1-4.8
			c-1.4-1.1-3.4-1.7-6.1-1.7c-4.1,0-7.3,1.3-9.5,3.9L43.5,44c1.4-1.6,3.1-2.8,5.2-3.7c2.1-0.9,4.5-1.3,7.2-1.3
			c3.6,0,6.4,0.8,8.5,2.5c2.1,1.7,3.1,4,3.1,6.9c0,1.8-0.4,3.5-1.2,5.2c-0.8,1.7-2.3,3.6-4.6,5.7L49.9,71.1H69.1z"/>
	</g>
	<g class="st1">
		<path class="st3" d="M69.1,71.1v3.2H44.6v-2.5l14.5-14.3c1.8-1.8,3.1-3.4,3.7-4.7c0.6-1.3,1-2.6,1-4c0-2.1-0.7-3.7-2.1-4.8
			c-1.4-1.1-3.4-1.7-6.1-1.7c-4.1,0-7.3,1.3-9.5,3.9L43.5,44c1.4-1.6,3.1-2.8,5.2-3.7c2.1-0.9,4.5-1.3,7.2-1.3
			c3.6,0,6.4,0.8,8.5,2.5c2.1,1.7,3.1,4,3.1,6.9c0,1.8-0.4,3.5-1.2,5.2c-0.8,1.7-2.3,3.6-4.6,5.7L49.9,71.1H69.1z"/>
	</g>
</g>
</svg>
