<?xml version="1.0" encoding="utf-8"?>
<!-- Generator: Adobe Illustrator 21.0.0, SVG Export Plug-In . SVG Version: 6.00 Build 0)  -->
<svg version="1.1"
	 id="svg2" inkscape:version="0.91 r13725" sodipodi:docname="3-off.svg" xmlns:cc="http://creativecommons.org/ns#" xmlns:dc="http://purl.org/dc/elements/1.1/" xmlns:inkscape="http://www.inkscape.org/namespaces/inkscape" xmlns:rdf="http://www.w3.org/1999/02/22-rdf-syntax-ns#" xmlns:sodipodi="http://sodipodi.sourceforge.net/DTD/sodipodi-0.dtd" xmlns:svg="http://www.w3.org/2000/svg"
	 xmlns="http://www.w3.org/2000/svg" xmlns:xlink="http://www.w3.org/1999/xlink" x="0px" y="0px" viewBox="0 0 113.4 113.4"
	 style="enable-background:new 0 0 113.4 113.4;" xml:space="preserve">
<style type="text/css">
	.st0{fill:none;stroke:#555555;stroke-width:9;}
	.st1{enable-background:new    ;}
	.st2{fill:#6EBF50;}
	.st3{fill:#555555;stroke:#555555;stroke-width:3;}
</style>
<sodipodi:namedview  bordercolor="#666666" borderopacity="1.0" id="base" inkscape:current-layer="layer1" inkscape:cx="73.0646" inkscape:cy="75.757396" inkscape:document-units="px" inkscape:pageopacity="0.0" inkscape:pageshadow="2" inkscape:window-height="822" inkscape:window-maximized="0" inkscape:window-width="822" inkscape:window-x="0" inkscape:window-y="0" inkscape:zoom="1.979899" pagecolor="#ffffff" showgrid="false" units="cm" width="40mm">
	</sodipodi:namedview>
<g>
	
		<circle id="path4136-6-0" inkscape:export-filename="C:\Users\Lucka\Desktop\KIT\HodnocenĂ­ koleÄŤka\3.png" inkscape:export-xdpi="90" inkscape:export-ydpi="90" class="st0" cx="56.7" cy="56.7" r="45.1">
	</circle>
	<g class="st1">
		<path class="st2" d="M66.4,57c1.9,1.8,2.9,4.1,2.9,7c0,2-0.5,3.8-1.5,5.3s-2.4,2.8-4.3,3.7s-4.2,1.3-7,1.3c-2.5,0-4.9-0.4-7.2-1.2
			c-2.3-0.8-4.1-1.9-5.4-3.3l1.8-2.8c1.2,1.2,2.7,2.2,4.6,2.9c1.9,0.8,4,1.1,6.2,1.1c2.9,0,5.1-0.6,6.7-1.9c1.6-1.3,2.3-3,2.3-5.2
			c0-2.2-0.8-3.9-2.3-5.1c-1.6-1.2-3.9-1.9-7.1-1.9h-2.5v-2.6l9.7-12.1H45.4v-3.2h22.5v2.5L58,54.1C61.7,54.3,64.5,55.3,66.4,57z"/>
	</g>
	<g class="st1">
		<path class="st3" d="M66.4,57c1.9,1.8,2.9,4.1,2.9,7c0,2-0.5,3.8-1.5,5.3s-2.4,2.8-4.3,3.7s-4.2,1.3-7,1.3c-2.5,0-4.9-0.4-7.2-1.2
			c-2.3-0.8-4.1-1.9-5.4-3.3l1.8-2.8c1.2,1.2,2.7,2.2,4.6,2.9c1.9,0.8,4,1.1,6.2,1.1c2.9,0,5.1-0.6,6.7-1.9c1.6-1.3,2.3-3,2.3-5.2
			c0-2.2-0.8-3.9-2.3-5.1c-1.6-1.2-3.9-1.9-7.1-1.9h-2.5v-2.6l9.7-12.1H45.4v-3.2h22.5v2.5L58,54.1C61.7,54.3,64.5,55.3,66.4,57z"/>
	</g>
</g>
</svg>
