<?xml version="1.0" encoding="utf-8"?>
<!-- Generator: Adobe Illustrator 21.0.0, SVG Export Plug-In . SVG Version: 6.00 Build 0)  -->
<svg version="1.1"
	 id="svg2" inkscape:version="0.91 r13725" sodipodi:docname="5-off.svg" xmlns:cc="http://creativecommons.org/ns#" xmlns:dc="http://purl.org/dc/elements/1.1/" xmlns:inkscape="http://www.inkscape.org/namespaces/inkscape" xmlns:rdf="http://www.w3.org/1999/02/22-rdf-syntax-ns#" xmlns:sodipodi="http://sodipodi.sourceforge.net/DTD/sodipodi-0.dtd" xmlns:svg="http://www.w3.org/2000/svg"
	 xmlns="http://www.w3.org/2000/svg" xmlns:xlink="http://www.w3.org/1999/xlink" x="0px" y="0px" viewBox="0 0 113.4 113.4"
	 style="enable-background:new 0 0 113.4 113.4;" xml:space="preserve">
<style type="text/css">
	.st0{fill:none;stroke:#555555;stroke-width:9;}
	.st1{enable-background:new    ;}
	.st2{fill:#6EBF50;}
	.st3{fill:#555555;stroke:#555555;stroke-width:3;}
</style>
<sodipodi:namedview  bordercolor="#666666" borderopacity="1.0" id="base" inkscape:current-layer="layer1" inkscape:cx="73.0646" inkscape:cy="75.757396" inkscape:document-units="px" inkscape:pageopacity="0.0" inkscape:pageshadow="2" inkscape:window-height="822" inkscape:window-maximized="0" inkscape:window-width="822" inkscape:window-x="0" inkscape:window-y="0" inkscape:zoom="1.979899" pagecolor="#ffffff" showgrid="false" units="cm" width="40mm">
	</sodipodi:namedview>
<g>
	
		<circle id="path4136-6-8" inkscape:export-filename="C:\Users\Lucka\Desktop\KIT\HodnocenĂ­ koleÄŤka\5.png" inkscape:export-xdpi="90" inkscape:export-ydpi="90" class="st0" cx="56.7" cy="56.7" r="45.1">
	</circle>
	<g class="st1">
		<path class="st2" d="M65,56.1c2.3,1.8,3.5,4.4,3.5,7.6c0,2-0.5,3.8-1.4,5.5c-0.9,1.6-2.4,2.9-4.3,3.8c-1.9,0.9-4.2,1.4-7,1.4
			c-2.5,0-4.9-0.4-7.1-1.2c-2.3-0.8-4.1-1.9-5.4-3.3L45,67c1.2,1.2,2.7,2.2,4.6,2.9c1.9,0.8,3.9,1.1,6.1,1.1c2.9,0,5.1-0.7,6.7-2
			c1.6-1.3,2.4-3,2.4-5.2c0-2.4-0.9-4.2-2.7-5.5c-1.8-1.2-4.8-1.9-9-1.9h-7.5l1.8-17.5h19.1v3.2h-16l-1.2,11.1h4.5
			C59,53.4,62.7,54.3,65,56.1z"/>
	</g>
	<g class="st1">
		<path class="st3" d="M65,56.1c2.3,1.8,3.5,4.4,3.5,7.6c0,2-0.5,3.8-1.4,5.5c-0.9,1.6-2.4,2.9-4.3,3.8c-1.9,0.9-4.2,1.4-7,1.4
			c-2.5,0-4.9-0.4-7.1-1.2c-2.3-0.8-4.1-1.9-5.4-3.3L45,67c1.2,1.2,2.7,2.2,4.6,2.9c1.9,0.8,3.9,1.1,6.1,1.1c2.9,0,5.1-0.7,6.7-2
			c1.6-1.3,2.4-3,2.4-5.2c0-2.4-0.9-4.2-2.7-5.5c-1.8-1.2-4.8-1.9-9-1.9h-7.5l1.8-17.5h19.1v3.2h-16l-1.2,11.1h4.5
			C59,53.4,62.7,54.3,65,56.1z"/>
	</g>
</g>
</svg>
