<?xml version="1.0" encoding="utf-8"?>
<!-- Generator: Adobe Illustrator 19.0.0, SVG Export Plug-In . SVG Version: 6.00 Build 0)  -->
<svg version="1.1" id="Vrstva_1" xmlns="http://www.w3.org/2000/svg" xmlns:xlink="http://www.w3.org/1999/xlink" x="0px" y="0px"
	 viewBox="0 0 133.225 110.938" enable-background="new 0 0 133.225 110.938" xml:space="preserve">
<g id="XMLID_62_">
	<polyline id="XMLID_185_" fill="none" stroke="#010101" stroke-width="3" stroke-miterlimit="10" points="85.5,42.938 85.5,1.438 
		47.5,1.438 47.5,42.938 	"/>
	<polyline id="XMLID_184_" fill="none" stroke="#010101" stroke-width="3" stroke-miterlimit="10" points="47.5,51.938 
		47.5,108.438 85.5,108.438 85.5,51.938 	"/>
	
		<rect id="XMLID_183_" x="44.5" y="80.438" fill="#010101" stroke="#010101" stroke-width="3" stroke-miterlimit="10" width="3" height="3"/>
	
		<rect id="XMLID_182_" x="86.5" y="80.438" fill="#010101" stroke="#010101" stroke-width="3" stroke-miterlimit="10" width="4" height="3"/>
	
		<line id="XMLID_181_" fill="none" stroke="#010101" stroke-width="3" stroke-miterlimit="10" x1="114" y1="41.438" x2="86" y2="41.438"/>
	<polyline id="XMLID_180_" fill="none" stroke="#010101" stroke-width="3" stroke-miterlimit="10" points="86,53.438 122.5,53.438 
		122.5,46.938 	"/>
	<polyline id="XMLID_179_" fill="none" stroke="#010101" stroke-width="3" stroke-miterlimit="10" points="12.5,46.938 12.5,53.438 
		48,53.438 	"/>
	
		<line id="XMLID_178_" fill="none" stroke="#010101" stroke-width="3" stroke-miterlimit="10" x1="47" y1="41.438" x2="22" y2="41.438"/>
	
		<rect id="XMLID_177_" x="53.5" y="7.438" fill="none" stroke="#010101" stroke-width="3" stroke-miterlimit="10" width="26" height="34"/>
	<path id="XMLID_176_" fill="none" stroke="#010101" stroke-width="3" stroke-miterlimit="10" d="M47,41.438H18.595
		c-3.473,0-6.499,3.011-6.499,6.485"/>
	<path id="XMLID_175_" fill="none" stroke="#010101" stroke-width="3" stroke-miterlimit="10" d="M122.195,47.727
		c0-3.474-2.65-6.289-6.123-6.289H86"/>
	<path id="XMLID_174_" fill="none" stroke="#010101" stroke-width="3" stroke-miterlimit="10" d="M85.163,53.959"/>
	<path id="XMLID_173_" fill="none" stroke="#010101" stroke-width="3" stroke-miterlimit="10" d="M48.478,52.911"/>
	<path id="XMLID_172_" fill="none" stroke="#010101" stroke-width="3" stroke-miterlimit="10" d="M50.631,91"/>
	<path id="XMLID_171_" fill="none" stroke="#010101" stroke-width="3" stroke-miterlimit="10" d="M50.631,71.435"/>
	<path id="XMLID_170_" fill="none" stroke="#010101" stroke-width="3" stroke-miterlimit="10" d="M50.631,51.869"/>
	<path id="XMLID_169_" fill="none" stroke="#010101" stroke-width="3" stroke-miterlimit="10" d="M122.5,98.238
		c0,6.738-5.462,12.2-12.2,12.2h-7.6c-6.738,0-12.2-5.462-12.2-12.2v-28.6c0-6.738,5.462-12.2,12.2-12.2h7.6
		c6.738,0,12.2,5.462,12.2,12.2V98.238z"/>
	<g id="XMLID_303_">
		
			<circle id="XMLID_168_" fill="none" stroke="#010101" stroke-width="3" stroke-miterlimit="10" cx="58.621" cy="57.689" r="4.127"/>
		
			<circle id="XMLID_167_" fill="none" stroke="#010101" stroke-width="3" stroke-miterlimit="10" cx="76.439" cy="57.689" r="4.127"/>
	</g>
	
		<line id="XMLID_166_" fill="none" stroke="#010101" stroke-width="3" stroke-miterlimit="10" x1="53.5" y1="69.938" x2="53.5" y2="104.938"/>
	
		<line id="XMLID_165_" fill="none" stroke="#010101" stroke-width="3" stroke-miterlimit="10" x1="79.5" y1="69.938" x2="79.5" y2="104.938"/>
	
		<line id="XMLID_164_" fill="none" stroke="#010101" stroke-width="3" stroke-miterlimit="10" x1="72.5" y1="69.938" x2="72.5" y2="104.938"/>
	
		<line id="XMLID_163_" fill="none" stroke="#010101" stroke-width="3" stroke-miterlimit="10" x1="66.5" y1="69.938" x2="66.5" y2="104.938"/>
	
		<line id="XMLID_162_" fill="none" stroke="#010101" stroke-width="3" stroke-miterlimit="10" x1="60.5" y1="69.938" x2="60.5" y2="104.938"/>
	<polyline id="XMLID_161_" fill="none" stroke="#010101" stroke-width="3" stroke-miterlimit="10" points="27.5,41.938 27.5,25.438 
		32.5,25.438 32.5,41.938 	"/>
	<polygon id="XMLID_160_" fill="none" stroke="#010101" stroke-width="3" stroke-miterlimit="10" points="24.413,21.438 
		29.601,16.251 34.788,21.438 	"/>
	<path id="XMLID_159_" fill="none" stroke="#010101" stroke-width="3" stroke-miterlimit="10" d="M43.5,97.31
		c0,6.738-5.45,13.128-12.189,13.128h-8.09c-6.737,0-12.721-6.39-12.721-13.128V69.303c0-6.738,5.984-11.865,12.721-11.865h8.09
		c6.739,0,12.189,5.127,12.189,11.865V97.31z"/>
	<g id="XMLID_291_">
		<polyline id="XMLID_158_" fill="none" stroke="#010101" stroke-width="3" stroke-miterlimit="10" points="122.437,73.925 
			106.333,90.03 89.814,73.512 		"/>
		<polyline id="XMLID_157_" fill="none" stroke="#010101" stroke-width="3" stroke-miterlimit="10" points="117.623,59.652 
			106.224,71.051 94.737,59.563 		"/>
		<polyline id="XMLID_156_" fill="none" stroke="#010101" stroke-width="3" stroke-miterlimit="10" points="122.437,91.695 
			106.333,107.801 89.814,91.282 		"/>
	</g>
	<g id="XMLID_287_">
		<polyline id="XMLID_155_" fill="none" stroke="#010101" stroke-width="3" stroke-miterlimit="10" points="43.827,73.925 
			27.723,90.03 11.204,73.512 		"/>
		<polyline id="XMLID_154_" fill="none" stroke="#010101" stroke-width="3" stroke-miterlimit="10" points="39.012,59.652 
			27.614,71.051 16.126,59.563 		"/>
		<polyline id="XMLID_153_" fill="none" stroke="#010101" stroke-width="3" stroke-miterlimit="10" points="43.827,91.695 
			27.723,107.801 11.204,91.282 		"/>
	</g>
</g>
<g id="XMLID_61_">
</g>
<g id="XMLID_63_">
</g>
<g id="XMLID_64_">
</g>
<g id="XMLID_65_">
</g>
<g id="XMLID_77_">
</g>
<g id="XMLID_78_">
</g>
</svg>
