<?xml version="1.0" encoding="utf-8"?>
<!-- Generator: Adobe Illustrator 19.0.0, SVG Export Plug-In . SVG Version: 6.00 Build 0)  -->
<svg version="1.1" id="Vrstva_1" xmlns="http://www.w3.org/2000/svg" xmlns:xlink="http://www.w3.org/1999/xlink" x="0px" y="0px"
	 viewBox="0 0 133.225 110.938" enable-background="new 0 0 133.225 110.938" xml:space="preserve">
<g id="XMLID_61_">
	<path id="XMLID_152_" fill="none" stroke="#010101" stroke-width="3" stroke-miterlimit="10" d="M18.892,80.159
		c-3.865-7.414-6.051-15.844-6.051-24.784c0-29.65,24.037-53.688,53.688-53.688s53.687,24.037,53.687,53.688
		c0,8.898-2.165,17.291-5.997,24.681"/>
	<path id="XMLID_151_" fill="none" stroke="#010101" stroke-width="3" stroke-miterlimit="10" d="M65.779,1.875"/>
	
		<line id="XMLID_150_" fill="none" stroke="#010101" stroke-width="3" stroke-miterlimit="10" x1="66.5" y1="59.938" x2="66.5" y2="1.938"/>
	
		<line id="XMLID_149_" fill="none" stroke="#010101" stroke-width="3" stroke-miterlimit="10" x1="14" y1="55.438" x2="120" y2="55.438"/>
	<path id="XMLID_148_" fill="none" stroke="#010101" stroke-width="3" stroke-miterlimit="10" d="M36.463,70.114
		c-0.771-4.685-1.184-9.629-1.184-14.739C35.279,25.621,49.27,1.5,66.529,1.5c17.259,0,31.25,24.121,31.25,53.875
		c0,5.146-0.418,10.122-1.199,14.835"/>
	<path id="XMLID_147_" fill="none" stroke="#010101" stroke-width="3" stroke-miterlimit="10" d="M102.529,15.625
		c-9.542,4.974-22.162,8-36,8c-13.816,0-26.418-3.017-35.954-7.977"/>
	<path id="XMLID_146_" fill="none" stroke="#010101" stroke-width="3" stroke-miterlimit="10" d="M71.201,87.241"/>
	<path id="XMLID_145_" fill="none" stroke="#010101" stroke-width="3" stroke-miterlimit="10" d="M66.529,87.125"/>
	<path id="XMLID_144_" fill="none" stroke="#010101" stroke-width="3" stroke-miterlimit="10" d="M63.029,87.189"/>
	<path id="XMLID_143_" fill="none" stroke="#010101" stroke-width="3" stroke-miterlimit="10" d="M34.154,93.394"/>
	<path id="XMLID_142_" fill="none" stroke="#010101" stroke-width="3" stroke-miterlimit="10" d="M78.329,72.645
		c0.158-0.032,0.042-0.06,0.21-0.06c1.342,0,2.43,1.088,2.43,2.431c0,1.342-1.088,2.429-2.43,2.429c-0.09,0-0.18-0.004-0.268-0.014"
		/>
	<path id="XMLID_141_" fill="none" stroke="#010101" stroke-width="3" stroke-miterlimit="10" d="M55.767,77.431
		c-0.088,0.01-0.178,0.014-0.269,0.014c-1.343,0-2.43-1.087-2.43-2.429c0-1.343,1.087-2.431,2.43-2.431
		c0.167,0,0.232,0.028,0.39,0.06"/>
	<path id="XMLID_140_" fill="none" stroke="#010101" stroke-width="3" stroke-miterlimit="10" d="M63.195,90.209
		c-1.334,0.146-1.972,0.286-3.201,0.654c-0.875,0.263-2.248,0.883-3.101,1.207C50.554,94.48,46.5,99.807,46.5,105.418v0.791
		l-0.11,3.167l41.59-0.042l-0.288-3.583l-0.05-0.5c0-5.64-4.09-10.81-10.438-13.199c-0.834-0.313-2.453-0.879-3.306-1.132
		c-1.078-0.321-2.185-0.832-3.347-0.979"/>
	<path id="XMLID_139_" fill="none" stroke="#010101" stroke-width="3" stroke-miterlimit="10" d="M72.808,71.895
		c0,0-1.109-1.56-1.17-1.619c-0.355-0.356-0.765-1.831-0.765-1.831s-0.296,1.72-0.675,2.101c-0.146,0.147-0.424,0.399-0.6,0.54
		c-7.043,5.608-12.58,1.388-14.137,1.44c0,0-0.018,1.848-0.018,3.254c0,5.194,4.056,9.523,8.056,10.893v4.943
		c0,1.732,1.76,3.823,3.492,3.823h0.166c1.731,0,4.342-2.092,4.342-3.823v-4.979c3-1.408,7.505-5.756,7.505-10.905
		c0-1.424-0.014-3.115-0.493-2.936C76.547,73.532,72.808,71.895,72.808,71.895z"/>
	<path id="XMLID_138_" fill="none" stroke="#010101" stroke-width="3" stroke-miterlimit="10" d="M55.559,72.952
		c-0.157-0.652-0.24-1.326-0.24-2.018c0-5.484,5.225-10.77,11.669-10.77c6.445,0,11.67,5.285,11.67,10.77
		c0,0.564-0.055,1.117-0.16,1.655"/>
	<g id="XMLID_263_">
		<g id="XMLID_264_">
			<path id="XMLID_137_" fill="none" stroke="#010101" stroke-width="3" stroke-miterlimit="10" d="M39.943,78.55
				c0.133-0.027,0.035-0.05,0.176-0.05c1.118,0,2.025,0.906,2.025,2.025c0,1.118-0.907,2.024-2.025,2.024
				c-0.076,0-0.15-0.004-0.223-0.012"/>
			<path id="XMLID_136_" fill="none" stroke="#010101" stroke-width="3" stroke-miterlimit="10" d="M21.142,82.538
				c-0.074,0.008-0.149,0.012-0.224,0.012c-1.118,0-2.024-0.906-2.024-2.024c0-1.119,0.906-2.025,2.024-2.025
				c0.14,0,0.192,0.023,0.325,0.05"/>
			<path id="XMLID_135_" fill="none" stroke="#010101" stroke-width="3" stroke-miterlimit="10" d="M46.886,101.29
				c-1.413-2.847-4.155-5.228-7.715-6.567c-0.694-0.261-2.126-0.733-2.837-0.943c-0.899-0.268-1.546-0.405-2.515-0.528"/>
			<path id="XMLID_134_" fill="none" stroke="#010101" stroke-width="3" stroke-miterlimit="10" d="M28.125,93.228
				c-1.111,0.123-2.318,0.27-3.342,0.577c-0.729,0.219-2.233,0.699-2.945,0.97c-5.281,2.008-8.536,6.298-8.536,10.974
				c0,0.254,0.198,0.465,0.198,0.864v-0.063v2.888H47"/>
			<path id="XMLID_133_" fill="none" stroke="#010101" stroke-width="3" stroke-miterlimit="10" d="M35.344,77.925
				c0,0-0.925-1.3-0.975-1.35c-0.297-0.297-0.638-1.525-0.638-1.525s-0.246,1.433-0.563,1.75c-0.122,0.123-0.353,0.333-0.5,0.45
				c-5.869,4.674-10.483,1.156-11.78,1.2c0,0,0.441,1.54,0.441,2.712c0,4.328,3.17,7.936,7.17,9.077v4.119
				c0,1.443,0.553,3.08,1.997,3.08h0.138c1.443,0,3.865-1.636,3.865-3.08v-4.149c3-1.174,6.13-4.797,6.13-9.088
				c0-1.187-0.072-2.596-0.472-2.446C38.52,79.289,35.344,77.925,35.344,77.925z"/>
			<path id="XMLID_132_" fill="none" stroke="#010101" stroke-width="3" stroke-miterlimit="10" d="M20.969,78.806
				c-0.131-0.543-0.199-1.104-0.199-1.681c0-4.57,4.354-8.975,9.725-8.975c5.371,0,9.725,4.404,9.725,8.975
				c0,0.47-0.046,0.931-0.135,1.379"/>
		</g>
	</g>
	<g id="XMLID_254_">
		<g id="XMLID_256_">
			<path id="XMLID_131_" fill="none" stroke="#010101" stroke-width="3" stroke-miterlimit="10" d="M112.031,78.675
				c0.131-0.027,0.035-0.05,0.174-0.05c1.119,0,2.025,0.906,2.025,2.025c0,1.118-0.906,2.024-2.025,2.024
				c-0.074,0-0.148-0.004-0.223-0.012"/>
			<path id="XMLID_130_" fill="none" stroke="#010101" stroke-width="3" stroke-miterlimit="10" d="M93.229,82.663
				c-0.073,0.008-0.147,0.012-0.224,0.012c-1.119,0-2.025-0.906-2.025-2.024c0-1.119,0.906-2.025,2.025-2.025
				c0.14,0,0.193,0.023,0.324,0.05"/>
			<path id="XMLID_129_" fill="none" stroke="#010101" stroke-width="3" stroke-miterlimit="10" d="M88,109.438h32.5v-2.843
				c0-0.254-0.274-0.508-0.274-0.766c0-4.699-3.582-8.991-8.872-10.982c-0.694-0.261-2.174-0.733-2.885-0.943
				c-0.898-0.268-2.023-0.385-2.992-0.508"/>
			<path id="XMLID_128_" fill="none" stroke="#010101" stroke-width="3" stroke-miterlimit="10" d="M99.976,93.321
				c-1.111,0.123-2.2,0.286-3.225,0.593c-0.729,0.219-2.174,0.707-2.885,0.978c-3.234,1.229-5.801,3.315-7.307,5.821"/>
			<path id="XMLID_127_" fill="none" stroke="#010101" stroke-width="3" stroke-miterlimit="10" d="M107.43,78.05
				c0,0-0.925-1.3-0.976-1.35c-0.297-0.297-0.637-1.525-0.637-1.525s-0.246,1.433-0.563,1.75c-0.123,0.123-0.354,0.333-0.5,0.45
				c-5.869,4.674-10.483,1.156-11.779,1.2c0,0,0.398,1.54,0.398,2.712c0,4.328,3.126,7.936,7.126,9.077v4.119
				c0,1.443,0.64,2.955,2.084,2.955h0.137c1.443,0,3.78-1.511,3.78-2.955v-4.149c3-1.174,6.174-4.797,6.174-9.088
				c0-1.187-0.05-2.596-0.451-2.446C110.585,79.414,107.43,78.05,107.43,78.05z"/>
			<path id="XMLID_126_" fill="none" stroke="#010101" stroke-width="3" stroke-miterlimit="10" d="M93.056,78.931
				c-0.132-0.543-0.201-1.104-0.201-1.681c0-4.57,4.354-8.975,9.725-8.975c5.371,0,9.726,4.404,9.726,8.975
				c0,0.47-0.046,0.931-0.134,1.379"/>
		</g>
		<path id="XMLID_125_" fill="none" stroke="#010101" stroke-width="3" stroke-miterlimit="10" d="M100.029,90.959
			c-0.206,0.009-0.067,0.322-0.25,0.333"/>
	</g>
	<path id="XMLID_124_" fill="none" stroke="#010101" stroke-width="3" stroke-miterlimit="10" d="M47.932,98.969"/>
	<path id="XMLID_123_" fill="none" stroke="#010101" stroke-width="3" stroke-miterlimit="10" d="M65.654,109.25"/>
	<path id="XMLID_122_" fill="none" stroke="#010101" stroke-width="3" stroke-miterlimit="10" d="M84.853,97.595"/>
	<path id="XMLID_121_" fill="none" stroke="#010101" stroke-width="3" stroke-miterlimit="10" d="M92.817,82.422"/>
	<path id="XMLID_120_" fill="none" stroke="#010101" stroke-width="3" stroke-miterlimit="10" d="M97.404,55.25"/>
	<path id="XMLID_119_" fill="none" stroke="#010101" stroke-width="3" stroke-miterlimit="10" d="M66.404,1.5"/>
	<path id="XMLID_118_" fill="none" stroke="#010101" stroke-width="3" stroke-miterlimit="10" d="M35.654,56"/>
	<path id="XMLID_117_" fill="none" stroke="#010101" stroke-width="3" stroke-miterlimit="10" d="M47.767,99.094
		c-3.032-4.101-5.62-9.165-7.616-14.932"/>
	<path id="XMLID_116_" fill="none" stroke="#010101" stroke-width="3" stroke-miterlimit="10" d="M93.212,84.02
		c-1.959,5.699-4.495,10.717-7.465,14.803"/>
</g>
<g id="XMLID_62_">
</g>
<g id="XMLID_63_">
</g>
<g id="XMLID_64_">
</g>
<g id="XMLID_65_">
</g>
<g id="XMLID_77_">
</g>
<g id="XMLID_78_">
</g>
</svg>
