<?xml version="1.0" encoding="utf-8"?>
<!-- Generator: Adobe Illustrator 19.0.0, SVG Export Plug-In . SVG Version: 6.00 Build 0)  -->
<svg version="1.1" id="Vrstva_1" xmlns="http://www.w3.org/2000/svg" xmlns:xlink="http://www.w3.org/1999/xlink" x="0px" y="0px"
	 viewBox="0 0 133.225 110.938" enable-background="new 0 0 133.225 110.938" xml:space="preserve">
<g id="XMLID_63_">
	<polyline id="XMLID_115_" fill="none" stroke="#010101" stroke-width="3" stroke-miterlimit="10" points="65,69.438 1.5,69.438 
		1.5,10.438 102.5,10.438 102.5,35.938 	"/>
	<polygon id="XMLID_114_" fill="none" stroke="#010101" stroke-width="3" stroke-miterlimit="10" points="44.169,75.544 
		31.066,92.438 73.066,92.438 60.691,75.549 	"/>
	<rect id="XMLID_113_" x="9" y="39.938" fill="none" width="11" height="23"/>
	
		<circle id="XMLID_112_" fill="none" stroke="#010101" stroke-width="6" stroke-miterlimit="10" cx="92.262" cy="61.505" r="18.875"/>
	<path id="XMLID_111_" fill="none" stroke="#010101" stroke-width="6" stroke-miterlimit="10" d="M108.615,71.699l20.146,20.146
		c1.953,1.953,1.953,5.118,0,7.071l0,0c-1.953,1.952-5.118,1.952-7.071,0l-20.187-20.188"/>
	<polyline id="XMLID_105_" fill="none" stroke="#010101" stroke-width="3" stroke-miterlimit="10" points="7.982,30.078 
		22.399,52.161 36.066,34.328 44.733,48.328 54.066,38.828 62.399,53.328 82.566,25.828 	"/>
	<polyline id="XMLID_99_" fill="none" stroke="#010101" stroke-width="3" stroke-miterlimit="10" points="69.417,26.866 
		83.697,24.348 85.495,34.546 	"/>
	<path id="XMLID_93_" fill="#010101" stroke="#010101" stroke-width="0.2" stroke-miterlimit="10" d="M84.675,38.078
		c0.179-0.058,1.756-0.493,2.769-0.754l-0.816-4.405l-2.719,0.641L84.675,38.078z"/>
	<polygon id="XMLID_87_" fill="#010101" stroke="#010101" stroke-miterlimit="10" points="67.972,68.482 68.644,70.438 
		64.566,70.438 64.493,68.459 	"/>
	<polygon id="XMLID_65_" fill="#010101" stroke="#010101" stroke-miterlimit="10" points="101.281,37.809 103.5,38.621 
		103.5,35.996 101.392,35.91 	"/>
</g>
<g id="XMLID_61_">
</g>
<g id="XMLID_62_">
</g>
<g id="XMLID_64_">
</g>
<g id="XMLID_77_">
</g>
<g id="XMLID_78_">
</g>
<g id="XMLID_79_">
</g>
</svg>
