<?xml version="1.0" encoding="utf-8"?>
<!-- Generator: Adobe Illustrator 19.0.0, SVG Export Plug-In . SVG Version: 6.00 Build 0)  -->
<svg version="1.1" id="Vrstva_1" xmlns="http://www.w3.org/2000/svg" xmlns:xlink="http://www.w3.org/1999/xlink" x="0px" y="0px"
	 viewBox="0 0 133.225 110.938" enable-background="new 0 0 133.225 110.938" xml:space="preserve">
<g id="XMLID_64_">
	<path id="XMLID_229_" fill="none" stroke="#010101" stroke-width="3" stroke-miterlimit="10" d="M89.512,32.455
		c0.329-0.067,0.671-0.103,1.02-0.103c2.796,0,5.063,2.267,5.063,5.063c0,2.796-2.267,5.063-5.063,5.063
		c-0.188,0-0.375-0.01-0.558-0.03"/>
	<path id="XMLID_228_" fill="none" stroke="#010101" stroke-width="3" stroke-miterlimit="10" d="M43.091,42.447
		c-0.184,0.02-0.369,0.03-0.559,0.03c-2.796,0-5.062-2.267-5.062-5.063c0-2.796,2.267-5.063,5.062-5.063
		c0.35,0,0.691,0.035,1.021,0.103"/>
	<path id="XMLID_227_" fill="none" stroke="#010101" stroke-width="3" stroke-miterlimit="10" d="M59.961,69.092
		c-2.779,0.309-5.501,0.717-8.063,1.483c-1.824,0.546-5.434,1.766-7.213,2.442c-13.206,5.021-21.512,15.756-21.512,27.443
		c0,0.636,0.328,1.013,0.328,2.013v0.003v6.961h87v-7.16c0-0.633-0.3-1.27-0.3-1.912c0-11.748-8.76-22.479-21.986-27.456
		c-1.736-0.653-5.339-1.832-7.117-2.36c-2.246-0.667-4.662-1.041-7.084-1.349"/>
	<path id="XMLID_226_" fill="none" stroke="#010101" stroke-width="3" stroke-miterlimit="10" d="M45.096,22.581
		C46.649,12.142,55.65,4.134,66.521,4.134c10.846,0,19.83,7.97,21.414,18.373"/>
	<path id="XMLID_225_" fill="none" stroke="#010101" stroke-width="3" stroke-miterlimit="10" d="M44.286,30.581
		c-0.984,2.59-1.213,5.395-1.213,8.324c0,10.82,7.427,19.942,17.427,22.795v10.299c0,3.608,2.369,6.44,5.978,6.44h0.344
		c3.607,0,7.679-2.831,7.679-6.44V61.625c9-2.934,16.318-11.995,16.318-22.721c0-2.967-0.768-5.806-1.799-8.424"/>
	<path id="XMLID_224_" fill="none" stroke="#010101" stroke-width="3" stroke-miterlimit="10" d="M108.5,26.441
		c0,2.208-1.79,3.997-3.997,3.997H28.497c-2.208,0-3.997-1.79-3.997-3.997v-0.006c0-2.208,1.79-3.997,3.997-3.997h76.006
		c2.208,0,3.997,1.79,3.997,3.997V26.441z"/>
	<path id="XMLID_223_" fill="none" stroke="#010101" stroke-width="2" stroke-miterlimit="10" d="M79.47,22.602
		c0-8.695,7.384-15.116,16.578-15.116"/>
	<polyline id="XMLID_222_" fill="none" stroke="#010101" stroke-width="3" stroke-miterlimit="10" points="88,87.438 93.5,87.438 
		93.5,109.438 40.5,109.438 40.5,87.438 46,87.438 	"/>
	
		<line id="XMLID_221_" fill="none" stroke="#010101" stroke-width="3" stroke-miterlimit="10" x1="52" y1="87.438" x2="82" y2="87.438"/>
	<polyline id="XMLID_220_" fill="none" stroke="#010101" stroke-width="3" stroke-miterlimit="10" points="52.5,70.938 52.5,95.438 
		45.5,95.438 45.5,72.938 	"/>
	<polyline id="XMLID_219_" fill="none" stroke="#010101" stroke-width="3" stroke-miterlimit="10" points="80.789,70.785 
		80.845,95.438 87.845,95.438 87.789,72.838 	"/>
	<path id="XMLID_218_" fill="#010101" stroke="#010101" stroke-miterlimit="10" d="M100.836,8.929
		c-0.026,0.002-1.104,0.08-1.132,0.08c-0.943,0-1.711-0.53-1.711-1.184c0-0.654,0.768-1.184,1.711-1.184
		c0.023,0,0.952,0.006,0.976,0.006"/>
	<polyline id="XMLID_217_" fill="#010101" stroke="#010101" stroke-miterlimit="10" points="99.768,7.873 99.768,7.811 
		100.514,7.811 100.514,7.873 	"/>
	<polyline id="XMLID_216_" fill="#010101" stroke="#010101" stroke-miterlimit="10" points="100.514,7.811 100.514,7.873 
		99.768,7.873 99.768,7.811 	"/>
	<path id="XMLID_215_" fill="#010101" stroke="#010101" stroke-miterlimit="10" d="M100.506,6.647c0,0,0.176,0.005,0.219,0.025
		c0.519,0.235,1.972,1.153,1.972,1.153s-1.414,0.913-1.929,1.131c-0.054,0.022-0.244,0.031-0.244,0.031"/>
	<g id="XMLID_214_">
		<g id="XMLID_118_">
			<path id="XMLID_122_" fill="#010101" d="M100.133,9.326c1.93,0,1.934-3,0-3C98.203,6.326,98.199,9.326,100.133,9.326
				L100.133,9.326z"/>
		</g>
	</g>
	<path id="XMLID_213_" fill="#010101" stroke="#010101" stroke-miterlimit="10" d="M98.212,11.238
		c-0.016-0.022-0.625-0.915-0.643-0.937c-0.586-0.738-1.479-1.009-1.99-0.602c-0.513,0.407-0.451,1.337,0.138,2.076
		c0.014,0.018,0.597,0.742,0.612,0.76"/>
	<polyline id="XMLID_212_" fill="#010101" stroke="#010101" stroke-miterlimit="10" points="96.72,11.057 96.672,11.096 
		97.137,11.681 97.185,11.642 	"/>
	<polyline id="XMLID_211_" fill="#010101" stroke="#010101" stroke-miterlimit="10" points="97.136,11.681 97.185,11.642 
		96.72,11.057 96.672,11.097 	"/>
	<path id="XMLID_210_" fill="#010101" stroke="#010101" stroke-miterlimit="10" d="M96.221,12.398c0,0,0.112,0.136,0.155,0.156
		c0.506,0.26,2.128,0.825,2.128,0.825s-0.164-1.675-0.313-2.214c-0.016-0.055-0.127-0.208-0.127-0.208"/>
	<g id="XMLID_209_">
		<g id="XMLID_113_">
			<path id="XMLID_117_" fill="#010101" d="M96.91,12.874c1.93,0,1.934-3,0-3C94.98,9.874,94.977,12.874,96.91,12.874L96.91,12.874z
				"/>
		</g>
	</g>
	<path id="XMLID_208_" fill="#010101" stroke="#010101" stroke-miterlimit="10" d="M93.936,11.842
		c-0.015-0.022-0.625-0.915-0.642-0.937c-0.587-0.738-1.479-1.008-1.99-0.602c-0.513,0.406-0.451,1.337,0.137,2.075
		c0.015,0.02,0.597,0.743,0.613,0.761"/>
	<polyline id="XMLID_207_" fill="#010101" stroke="#010101" stroke-miterlimit="10" points="92.443,11.663 92.396,11.701 
		92.86,12.287 92.908,12.248 	"/>
	<polyline id="XMLID_206_" fill="#010101" stroke="#010101" stroke-miterlimit="10" points="92.859,12.287 92.908,12.248 
		92.443,11.663 92.396,11.702 	"/>
	<path id="XMLID_205_" fill="#010101" stroke="#010101" stroke-miterlimit="10" d="M91.944,13.002c0,0,0.112,0.136,0.155,0.157
		c0.507,0.26,2.128,0.824,2.128,0.824s-0.163-1.675-0.313-2.213c-0.016-0.056-0.127-0.209-0.127-0.209"/>
	<g id="XMLID_204_">
		<g id="XMLID_107_">
			<path id="XMLID_111_" fill="#010101" d="M92.635,13.479c1.93,0,1.934-3,0-3C90.705,10.479,90.701,13.479,92.635,13.479
				L92.635,13.479z"/>
		</g>
	</g>
	<path id="XMLID_203_" fill="#010101" stroke="#010101" stroke-miterlimit="10" d="M89.943,13.294
		c-0.015-0.023-0.623-0.915-0.641-0.936c-0.588-0.738-1.48-1.009-1.991-0.603c-0.514,0.407-0.452,1.337,0.137,2.076
		c0.016,0.019,0.599,0.742,0.612,0.76"/>
	<polyline id="XMLID_202_" fill="#010101" stroke="#010101" stroke-miterlimit="10" points="88.451,13.114 88.402,13.153 
		88.867,13.738 88.918,13.699 	"/>
	<polyline id="XMLID_201_" fill="#010101" stroke="#010101" stroke-miterlimit="10" points="88.867,13.738 88.918,13.699 
		88.451,13.114 88.402,13.153 	"/>
	<path id="XMLID_200_" fill="#010101" stroke="#010101" stroke-miterlimit="10" d="M87.951,14.455c0,0,0.112,0.136,0.155,0.157
		c0.508,0.26,2.13,0.824,2.13,0.824s-0.165-1.675-0.314-2.213c-0.017-0.056-0.128-0.21-0.128-0.21"/>
	<g id="XMLID_199_">
		<g id="XMLID_101_">
			<path id="XMLID_105_" fill="#010101" d="M88.641,14.93c1.93,0,1.934-3,0-3C86.71,11.93,86.707,14.93,88.641,14.93L88.641,14.93z"
				/>
		</g>
	</g>
	<polyline id="XMLID_198_" fill="#010101" stroke="#010101" stroke-miterlimit="10" points="87.04,6.992 86.992,6.953 87.457,6.368 
		87.505,6.407 	"/>
	<g id="XMLID_324_">
		<path id="XMLID_197_" fill="#010101" stroke="#010101" stroke-miterlimit="10" d="M98.212,3.608
			c-0.016,0.022-0.625,0.916-0.643,0.938c-0.586,0.738-1.479,1.008-1.99,0.602c-0.513-0.406-0.451-1.337,0.138-2.076
			c0.014-0.019,0.597-0.742,0.612-0.76"/>
		<polyline id="XMLID_196_" fill="#010101" stroke="#010101" stroke-miterlimit="10" points="96.72,3.789 96.672,3.75 97.137,3.165 
			97.185,3.204 		"/>
		<polyline id="XMLID_195_" fill="#010101" stroke="#010101" stroke-miterlimit="10" points="97.136,3.165 97.185,3.204 
			96.72,3.789 96.672,3.75 		"/>
		<path id="XMLID_194_" fill="#010101" stroke="#010101" stroke-miterlimit="10" d="M96.221,2.448c0,0,0.112-0.135,0.155-0.156
			c0.506-0.26,2.128-0.825,2.128-0.825s-0.164,1.675-0.313,2.213c-0.016,0.057-0.127,0.21-0.127,0.21"/>
		<g id="XMLID_193_">
			<g id="XMLID_95_">
				<path id="XMLID_99_" fill="#010101" d="M96.91,4.972c1.93,0,1.934-3,0-3C94.98,1.972,94.977,4.972,96.91,4.972L96.91,4.972z"/>
			</g>
		</g>
		<path id="XMLID_192_" fill="#010101" stroke="#010101" stroke-miterlimit="10" d="M88.532,5.759
			c-0.017,0.023-0.625,0.915-0.643,0.937c-0.586,0.739-1.48,1.009-1.99,0.602c-0.513-0.407-0.451-1.337,0.138-2.076
			c0.014-0.018,0.596-0.742,0.612-0.76"/>
		<path id="XMLID_191_" fill="#010101" stroke="#010101" stroke-miterlimit="10" d="M86.539,4.599c0,0,0.114-0.136,0.157-0.157
			c0.505-0.26,2.128-0.824,2.128-0.824s-0.164,1.675-0.313,2.213c-0.017,0.056-0.128,0.21-0.128,0.21"/>
		<path id="XMLID_190_" fill="#010101" stroke="#010101" stroke-miterlimit="10" d="M93.373,4.187
			c-0.018,0.022-0.626,0.915-0.643,0.937c-0.586,0.738-1.479,1.008-1.99,0.602c-0.513-0.406-0.451-1.337,0.137-2.075
			c0.016-0.02,0.598-0.742,0.612-0.761"/>
		<polyline id="XMLID_189_" fill="#010101" stroke="#010101" stroke-miterlimit="10" points="91.88,4.367 91.831,4.329 
			92.297,3.743 92.346,3.783 		"/>
		<polyline id="XMLID_188_" fill="#010101" stroke="#010101" stroke-miterlimit="10" points="92.296,3.743 92.346,3.783 
			91.88,4.367 91.831,4.328 		"/>
		<path id="XMLID_187_" fill="#010101" stroke="#010101" stroke-miterlimit="10" d="M91.38,3.027c0,0,0.114-0.136,0.156-0.157
			c0.506-0.26,2.128-0.824,2.128-0.824s-0.165,1.675-0.313,2.213c-0.017,0.056-0.128,0.209-0.128,0.209"/>
		<g id="XMLID_186_">
			<g id="XMLID_93_">
				<path id="XMLID_112_" fill="#010101" d="M92.069,5.551c1.93,0,1.934-3,0-3C90.139,2.551,90.136,5.551,92.069,5.551L92.069,5.551
					z"/>
			</g>
		</g>
	</g>
</g>
<g id="XMLID_61_">
</g>
<g id="XMLID_62_">
</g>
<g id="XMLID_63_">
</g>
<g id="XMLID_65_">
</g>
<g id="XMLID_77_">
</g>
<g id="XMLID_78_">
</g>
</svg>
