<?xml version="1.0" encoding="utf-8"?>
<!-- Generator: Adobe Illustrator 16.0.0, SVG Export Plug-In . SVG Version: 6.00 Build 0)  -->
<!DOCTYPE svg PUBLIC "-//W3C//DTD SVG 1.1//EN" "http://www.w3.org/Graphics/SVG/1.1/DTD/svg11.dtd">
<svg version="1.1" id="Layer_1" xmlns="http://www.w3.org/2000/svg" xmlns:xlink="http://www.w3.org/1999/xlink" x="0px" y="0px"
	 width="200px" height="116.68px" viewBox="0 41.68 200 116.68" enable-background="new 0 41.68 200 116.68" xml:space="preserve">
<g>
	<rect y="41.68" fill="#FFFFFF" width="200" height="116.68"/>
	<polygon fill="#BD0034" points="133.906,83.867 200,46.836 200,41.68 195.43,41.68 120.078,83.867 	"/>
	<polygon fill="#BD0034" points="130.781,118.516 200,157.227 200,149.492 144.609,118.516 	"/>
	<polygon fill="#BD0034" points="0,50.547 59.18,83.867 73.047,83.867 0,42.773 	"/>
	<polygon fill="#BD0034" points="69.883,118.516 0,157.656 0,158.359 12.617,158.359 83.75,118.516 	"/>
	<polygon fill="#1A237B" points="186.328,41.68 116.289,41.68 116.289,80.898 	"/>
	<polygon fill="#1A237B" points="85.352,41.68 15.625,41.68 85.352,80.898 	"/>
	<polygon fill="#1A237B" points="200,83.867 200,57.07 152.5,83.867 	"/>
	<polygon fill="#1A237B" points="200,144.961 200,118.516 152.5,118.516 	"/>
	<polygon fill="#1A237B" points="19.57,158.359 85.352,158.359 85.352,121.445 	"/>
	<polygon fill="#1A237B" points="116.289,158.359 182.266,158.359 116.289,121.445 	"/>
	<polygon fill="#1A237B" points="0,118.516 0,146.172 49.141,118.516 	"/>
	<polygon fill="#1A237B" points="0,83.867 49.141,83.867 0,56.133 	"/>
	<polygon fill="#BD0034" points="91.563,41.68 91.563,90.781 0,90.781 0,111.563 91.563,111.563 91.563,158.359 110.117,158.359 
		110.117,111.563 200,111.563 200,90.781 110.117,90.781 110.117,41.68 	"/>
</g>
</svg>
