<?xml version="1.0" encoding="utf-8"?>
<!-- Generator: Adobe Illustrator 16.0.0, SVG Export Plug-In . SVG Version: 6.00 Build 0)  -->
<!DOCTYPE svg PUBLIC "-//W3C//DTD SVG 1.1//EN" "http://www.w3.org/Graphics/SVG/1.1/DTD/svg11.dtd">
<svg version="1.1" id="artwork" xmlns="http://www.w3.org/2000/svg" xmlns:xlink="http://www.w3.org/1999/xlink" x="0px" y="0px"
	 width="135px" height="40px" viewBox="0 0 135 40" enable-background="new 0 0 135 40" xml:space="preserve">
<g>
	<rect x="-10" y="-10" fill="#FFFFFF" fill-opacity="0" width="155" height="60"/>
	<g>
		<path d="M130,40H5c-2.75,0-5-2.25-5-5V5c0-2.75,2.25-5,5-5h125c2.75,0,5,2.25,5,5v30C135,37.75,132.75,40,130,40z"/>
	</g>
	<g>
		<g>
			<path fill="#A6A6A6" d="M130,0.8c2.316,0,4.2,1.884,4.2,4.2v30c0,2.316-1.884,4.2-4.2,4.2H5c-2.316,0-4.2-1.884-4.2-4.2V5
				c0-2.316,1.884-4.2,4.2-4.2H130 M130,0H5C2.25,0,0,2.25,0,5v30c0,2.75,2.25,5,5,5h125c2.75,0,5-2.25,5-5V5
				C135,2.25,132.75,0,130,0L130,0z"/>
		</g>
	</g>
	<path fill="#FFFFFF" d="M68.136,21.752c-2.353,0-4.269,1.788-4.269,4.253c0,2.448,1.916,4.253,4.269,4.253s4.27-1.805,4.27-4.253
		C72.405,23.54,70.488,21.752,68.136,21.752z M68.136,28.582c-1.288,0-2.4-1.063-2.4-2.577c0-1.53,1.112-2.577,2.4-2.577
		c1.289,0,2.4,1.047,2.4,2.577C70.536,27.52,69.425,28.582,68.136,28.582z M58.822,21.752c-2.352,0-4.27,1.788-4.27,4.253
		c0,2.448,1.918,4.253,4.27,4.253c2.353,0,4.27-1.805,4.27-4.253C63.092,23.54,61.175,21.752,58.822,21.752z M58.822,28.582
		c-1.289,0-2.4-1.063-2.4-2.577c0-1.53,1.111-2.577,2.4-2.577s2.4,1.047,2.4,2.577C61.223,27.52,60.111,28.582,58.822,28.582z
		 M47.744,23.057v1.805h4.317c-0.129,1.015-0.468,1.756-0.983,2.271c-0.628,0.628-1.611,1.32-3.334,1.32
		c-2.658,0-4.736-2.143-4.736-4.801s2.078-4.801,4.736-4.801c1.434,0,2.48,0.564,3.254,1.289l1.273-1.273
		c-1.08-1.03-2.514-1.82-4.527-1.82c-3.642,0-6.703,2.965-6.703,6.605s3.061,6.605,6.703,6.605c1.965,0,3.447-0.645,4.607-1.853
		c1.191-1.192,1.563-2.868,1.563-4.222c0-0.418-0.032-0.805-0.097-1.127H47.744z M93.052,24.458
		c-0.354-0.95-1.434-2.706-3.641-2.706c-2.191,0-4.012,1.724-4.012,4.253c0,2.384,1.805,4.253,4.221,4.253
		c1.949,0,3.077-1.191,3.545-1.885l-1.45-0.967c-0.483,0.709-1.144,1.176-2.095,1.176c-0.95,0-1.627-0.435-2.062-1.289l5.687-2.352
		L93.052,24.458z M87.252,25.876c-0.048-1.644,1.273-2.481,2.224-2.481c0.741,0,1.369,0.371,1.579,0.902L87.252,25.876z M82.629,30
		h1.868V17.498h-1.868V30z M79.567,22.702h-0.064c-0.419-0.499-1.225-0.95-2.239-0.95c-2.127,0-4.076,1.869-4.076,4.27
		c0,2.384,1.949,4.236,4.076,4.236c1.015,0,1.82-0.451,2.239-0.967h0.064v0.612c0,1.628-0.87,2.497-2.271,2.497
		c-1.144,0-1.853-0.821-2.143-1.514l-1.627,0.676c0.467,1.128,1.707,2.514,3.77,2.514c2.191,0,4.044-1.289,4.044-4.431V22.01h-1.772
		V22.702z M77.425,28.582c-1.289,0-2.368-1.079-2.368-2.561c0-1.499,1.079-2.594,2.368-2.594c1.272,0,2.271,1.095,2.271,2.594
		C79.696,27.503,78.697,28.582,77.425,28.582z M101.806,17.498h-4.471V30H99.2v-4.736h2.605c2.068,0,4.102-1.497,4.102-3.883
		C105.907,18.996,103.874,17.498,101.806,17.498z M101.854,23.523H99.2v-4.285h2.654c1.395,0,2.187,1.155,2.187,2.143
		C104.041,22.35,103.249,23.523,101.854,23.523z M113.386,21.729c-1.351,0-2.75,0.596-3.329,1.914l1.656,0.691
		c0.354-0.691,1.014-0.916,1.705-0.916c0.965,0,1.946,0.578,1.962,1.607v0.129c-0.338-0.193-1.062-0.482-1.946-0.482
		c-1.785,0-3.603,0.98-3.603,2.814c0,1.673,1.464,2.75,3.104,2.75c1.254,0,1.946-0.563,2.38-1.223h0.064v0.966h1.802v-4.793
		C117.182,22.967,115.524,21.729,113.386,21.729z M113.16,28.58c-0.61,0-1.463-0.306-1.463-1.062c0-0.965,1.062-1.335,1.979-1.335
		c0.819,0,1.206,0.177,1.704,0.418C115.235,27.76,114.238,28.58,113.16,28.58z M123.743,22.002l-2.139,5.42h-0.064l-2.22-5.42h-2.01
		l3.329,7.575l-1.898,4.214h1.946l5.131-11.789H123.743z M106.937,30h1.865V17.498h-1.865V30z"/>
	<g>
		
			<linearGradient id="SVGID_1_" gradientUnits="userSpaceOnUse" x1="21.7998" y1="173.29" x2="5.0178" y2="156.508" gradientTransform="matrix(1 0 0 -1 0 182)">
			<stop  offset="0" style="stop-color:#00A0FF"/>
			<stop  offset="0.0066" style="stop-color:#00A1FF"/>
			<stop  offset="0.2601" style="stop-color:#00BEFF"/>
			<stop  offset="0.5122" style="stop-color:#00D2FF"/>
			<stop  offset="0.7604" style="stop-color:#00DFFF"/>
			<stop  offset="1" style="stop-color:#00E3FF"/>
		</linearGradient>
		<path fill="url(#SVGID_1_)" d="M10.436,7.538c-0.291,0.308-0.463,0.786-0.463,1.405v22.116c0,0.62,0.172,1.098,0.463,1.405
			l0.074,0.072l12.389-12.39v-0.146v-0.146L10.509,7.465L10.436,7.538z"/>
		
			<linearGradient id="SVGID_2_" gradientUnits="userSpaceOnUse" x1="33.8335" y1="161.999" x2="9.6376" y2="161.999" gradientTransform="matrix(1 0 0 -1 0 182)">
			<stop  offset="0" style="stop-color:#FFE000"/>
			<stop  offset="0.4087" style="stop-color:#FFBD00"/>
			<stop  offset="0.7754" style="stop-color:#FFA500"/>
			<stop  offset="1" style="stop-color:#FF9C00"/>
		</linearGradient>
		<path fill="url(#SVGID_2_)" d="M27.028,24.278l-4.129-4.132v-0.146v-0.146l4.13-4.131l0.093,0.053l4.893,2.78
			c1.397,0.794,1.397,2.093,0,2.888l-4.893,2.78L27.028,24.278z"/>
		
			<linearGradient id="SVGID_3_" gradientUnits="userSpaceOnUse" x1="24.8281" y1="159.7051" x2="2.0696" y2="136.9466" gradientTransform="matrix(1 0 0 -1 0 182)">
			<stop  offset="0" style="stop-color:#FF3A44"/>
			<stop  offset="1" style="stop-color:#C31162"/>
		</linearGradient>
		<path fill="url(#SVGID_3_)" d="M27.122,24.225l-4.224-4.224L10.436,32.464c0.46,0.487,1.221,0.548,2.078,0.062L27.122,24.225"/>
		
			<linearGradient id="SVGID_4_" gradientUnits="userSpaceOnUse" x1="7.2974" y1="181.8232" x2="17.4597" y2="171.6609" gradientTransform="matrix(1 0 0 -1 0 182)">
			<stop  offset="0" style="stop-color:#32A071"/>
			<stop  offset="0.0685" style="stop-color:#2DA771"/>
			<stop  offset="0.4762" style="stop-color:#15CF74"/>
			<stop  offset="0.8009" style="stop-color:#06E775"/>
			<stop  offset="1" style="stop-color:#00F076"/>
		</linearGradient>
		<path fill="url(#SVGID_4_)" d="M27.122,15.777l-14.608-8.3c-0.857-0.487-1.618-0.426-2.078,0.062l12.463,12.463L27.122,15.777z"/>
		<g>
			<path opacity="0.2" enable-background="new    " d="M27.029,24.132l-14.515,8.247c-0.812,0.461-1.538,0.431-2.004,0.012l0,0
				l-0.074,0.074l0,0l0.074,0.072l0-0.001c0.466,0.42,1.192,0.451,2.004-0.011l14.608-8.301L27.029,24.132z"/>
			<path opacity="0.12" enable-background="new    " d="M10.436,32.318c-0.291-0.309-0.463-0.785-0.463-1.404v0.146
				c0,0.619,0.172,1.097,0.463,1.405l0.074-0.074L10.436,32.318z"/>
		</g>
		<path opacity="0.12" enable-background="new    " d="M32.015,21.299l-4.986,2.833l0.093,0.093l4.893-2.779
			c0.699-0.397,1.048-0.921,1.048-1.443l0,0C33.004,20.475,32.648,20.938,32.015,21.299z"/>
		<path opacity="0.25" fill="#FFFFFF" enable-background="new    " d="M12.514,7.623l19.501,11.08
			c0.634,0.359,0.989,0.824,1.048,1.298l0,0c0-0.522-0.349-1.047-1.048-1.444L12.514,7.477c-1.398-0.794-2.541-0.134-2.541,1.466
			v0.146C9.973,7.489,11.116,6.829,12.514,7.623z"/>
	</g>
</g>
<g>
	<path fill="#FFFFFF" stroke="#FFFFFF" stroke-width="0.2" stroke-miterlimit="10" d="M40.702,13V7h0.938l2.916,4.667h0.033
		l-0.033-1.156V7h0.771v6h-0.805l-3.051-4.894h-0.033l0.033,1.156V13H40.702z"/>
	<path fill="#FFFFFF" stroke="#FFFFFF" stroke-width="0.2" stroke-miterlimit="10" d="M48.989,13h-0.771v-2.791L46.199,7h0.905
		l1.483,2.438h0.033L50.07,7h0.905l-1.986,3.209V13z"/>
	<path fill="#FFFFFF" stroke="#FFFFFF" stroke-width="0.2" stroke-miterlimit="10" d="M51.847,13V7h0.938l2.916,4.667h0.033
		l-0.033-1.156V7h0.771v6h-0.805l-3.051-4.894h-0.033l0.033,1.156V13H51.847z"/>
	<path fill="#FFFFFF" stroke="#FFFFFF" stroke-width="0.2" stroke-miterlimit="10" d="M57.847,13V7h0.771v6H57.847z M58.567,6.531
		h-0.671l0.437-1.073h0.838L58.567,6.531z"/>
	<path fill="#FFFFFF" stroke="#FFFFFF" stroke-width="0.2" stroke-miterlimit="10" d="M62.003,13V7h0.938l2.916,4.667h0.033
		l-0.033-1.156V7h0.771v6h-0.805l-3.051-4.894H62.74l0.033,1.156V13H62.003z"/>
	<path fill="#FFFFFF" stroke="#FFFFFF" stroke-width="0.2" stroke-miterlimit="10" d="M67.5,13l2.263-6h0.871l2.263,6h-0.854
		l-0.578-1.626h-2.522L68.354,13H67.5z M69.201,10.653h1.994l-0.98-2.707h-0.033L69.201,10.653z"/>
</g>
</svg>
