<?xml version="1.0" encoding="utf-8"?>
<!-- Generator: Adobe Illustrator 16.0.0, SVG Export Plug-In . SVG Version: 6.00 Build 0)  -->
<!DOCTYPE svg PUBLIC "-//W3C//DTD SVG 1.1//EN" "http://www.w3.org/Graphics/SVG/1.1/DTD/svg11.dtd">
<svg version="1.1" id="Vrstva_1" xmlns="http://www.w3.org/2000/svg" xmlns:xlink="http://www.w3.org/1999/xlink" x="0px" y="0px"
	 width="307.563px" height="80.857px" viewBox="30.872 15.822 307.563 80.857"
	 enable-background="new 30.872 15.822 307.563 80.857" xml:space="preserve">
<polygon points="108.97,32.621 133.006,32.621 133.006,96.679 153.477,96.679 153.477,32.621 177.742,32.621 177.742,16.06 
	108.97,16.06 "/>
<rect x="182.913" y="16.175" width="20.473" height="80.504"/>
<path d="M259.664,73.289l18.313-46.619c-5.382-6.826-14.598-10.495-26.983-10.495h-35.076v80.504h20.471V74.023h14.605
	C254.087,74.023,256.978,73.771,259.664,73.289 M236.389,57.922V32.276h13.571c8.97,0,14.146,4.255,14.146,12.651
	c0,8.511-5.176,12.995-14.146,12.995H236.389z"/>
<polygon points="301.93,58.461 319.811,52.268 305.764,16.118 284.602,16.118 252.976,96.622 274.022,96.622 294.608,37.394 "/>
<polygon points="309.711,80.851 315.194,96.622 337.044,96.622 328.403,74.377 "/>
<path d="M309.351,55.518l1.023,2.951l-4.983,1.732c-1.313,0.445-1.925,2.111-1.354,3.726l1.336,3.853l-6.754,2.345l1.223,3.52
	l6.755-2.345l1.347,3.872c0.554,1.606,2.054,2.528,3.354,2.079l5.007-1.738l0.99,2.889l4.128-1.41l-1.011-2.906l16.465-5.711
	c1.3-0.451,1.912-2.12,1.354-3.729l-3.902-11.241c-0.558-1.607-2.053-2.528-3.368-2.085l-16.467,5.714l-1.008-2.941L309.351,55.518z
	"/>
<path d="M300.26,67.197c-0.735-0.229-1.746-0.334-2.598-0.265l-0.452,0.037l1.803,5.245l1.803,5.244l0.248-0.154
	c1.74-1.087,2.751-2.658,2.848-4.423c0.093-1.683-0.744-3.676-1.997-4.76C301.632,67.88,300.611,67.307,300.26,67.197"/>
<path d="M293.349,67.936c-0.858-0.109-0.979-0.098-1.236,0.122c-0.208,0.179-0.241,0.3-0.366,1.275
	c-0.227,1.763-0.111,3.223,0.373,4.803c0.579,1.89,1.405,3.236,2.871,4.687c0.441,0.438,0.523,0.502,0.678,0.539
	c0.209,0.049,0.385,0.027,0.536-0.066c0.175-0.105,1.232-1.229,1.313-1.393c0.097-0.197,0.08-0.533-0.036-0.703
	c-0.053-0.076-0.324-0.375-0.602-0.66c-0.947-0.977-1.492-1.838-1.896-3c-0.267-0.768-0.408-1.432-0.452-2.12
	c-0.04-0.636-0.02-1.028,0.098-1.923c0.054-0.414,0.091-0.813,0.083-0.881c-0.021-0.176-0.205-0.406-0.397-0.498
	C294.22,68.07,293.805,67.992,293.349,67.936"/>
<path d="M289.314,65.281c-0.396-0.103-0.798-0.187-0.9-0.188c-0.208-0.003-0.467,0.138-0.597,0.323
	c-0.188,0.27-0.626,2.09-0.776,3.228c-0.685,5.171,1.026,10.411,4.585,14.048c0.815,0.836,2.188,1.949,2.521,2.049
	c0.189,0.056,0.468,0.006,0.622-0.11c0.059-0.045,0.338-0.394,0.621-0.774c0.557-0.753,0.604-0.859,0.543-1.182
	c-0.042-0.212-0.136-0.314-0.626-0.699c-1.817-1.422-2.911-2.699-3.904-4.563c-0.403-0.758-0.686-1.437-0.958-2.307
	c-0.295-0.94-0.451-1.681-0.563-2.671c-0.214-1.874-0.071-3.51,0.488-5.632c0.175-0.658,0.173-0.826-0.014-1.077
	C290.197,65.511,290.182,65.505,289.314,65.281"/>
<path d="M83.882,15.823H72.605c-0.934,1.584-2.232,2.854-3.149,3.633v1.849c0.245-0.382,0.519-0.749,0.849-1.079
	c3.3-3.301,10.117-2.486,10.117-2.486s0.814,6.816-2.486,10.117c-2.299,2.298-6.438,2.329-8.479,2.184v3.704
	c0.245-0.382,0.519-0.749,0.849-1.079c3.3-3.3,10.117-2.486,10.117-2.486s0.814,6.816-2.486,10.117
	c-2.299,2.298-6.438,2.33-8.479,2.185v3.704c0.245-0.383,0.519-0.749,0.849-1.079c3.3-3.301,10.117-2.487,10.117-2.487
	s0.814,6.817-2.486,10.117c-2.299,2.301-6.438,2.33-8.479,2.188v3.704c0.245-0.382,0.519-0.749,0.849-1.079
	c3.3-3.302,10.117-2.486,10.117-2.486s0.814,6.815-2.486,10.116c-2.299,2.3-6.438,2.33-8.479,2.185v3.703
	c0.245-0.382,0.519-0.748,0.849-1.078c3.3-3.301,10.117-2.485,10.117-2.485s0.44,3.726-0.661,7.003
	c-0.095,0.277-0.199,0.552-0.316,0.822c-0.005,0.011-0.009,0.022-0.014,0.033c-0.108,0.244-0.229,0.481-0.357,0.715
	c-0.02,0.035-0.036,0.072-0.056,0.107c-0.121,0.211-0.258,0.413-0.399,0.611c-0.034,0.048-0.062,0.1-0.097,0.146
	c-0.179,0.238-0.373,0.465-0.586,0.678c-2.299,2.299-6.438,2.33-8.479,2.186h-2.188c-2.041,0.145-6.181,0.113-8.479-2.186
	c-0.159-0.159-0.303-0.334-0.443-0.51c-0.101-0.129-0.198-0.259-0.29-0.392c-2.426-3.497-1.752-9.216-1.752-9.216
	s6.815-0.814,10.117,2.484c0.329,0.33,0.603,0.697,0.848,1.08v-3.703c-2.041,0.146-6.181,0.113-8.479-2.186
	c-3.3-3.301-2.485-10.117-2.485-10.117s6.815-0.814,10.117,2.487c0.329,0.33,0.603,0.696,0.848,1.079v-3.704
	c-2.041,0.144-6.181,0.112-8.479-2.187c-3.3-3.301-2.485-10.118-2.485-10.118s6.815-0.814,10.117,2.487
	c0.329,0.33,0.603,0.697,0.848,1.079v-3.704c-2.041,0.145-6.181,0.113-8.479-2.185c-3.3-3.301-2.485-10.117-2.485-10.117
	s6.815-0.814,10.117,2.486c0.329,0.33,0.603,0.697,0.848,1.079V30.04c-2.041,0.145-6.181,0.114-8.479-2.184
	c-3.3-3.301-2.485-10.117-2.485-10.117s6.815-0.815,10.117,2.486c0.329,0.33,0.603,0.697,0.848,1.079v-1.892
	c-0.897-0.794-2.159-2.06-3.089-3.59H51.164H30.872v46.284c0,21.09,14.363,34.428,36.822,34.428
	c22.343,0,36.365-13.338,36.365-34.428V15.823H83.882z"/>
</svg>
